M48
; DRILL file KiCad 10.0.4 date 2026-08-28T11:42:01
; FORMAT={-:-/ absolute / metric / decimal}
; #@! TF.CreationDate,2026-08-28T11:42:01-06:00
; #@! TF.GenerationSoftware,Kicad,Pcbnew,10.0.4
; #@! TF.FileFunction,NonPlated,1,2,NPTH
FMAT,2
METRIC
; #@! TA.AperFunction,NonPlated,NPTH,ComponentDrill
T1C1.702
; #@! TA.AperFunction,NonPlated,NPTH,ComponentDrill
T2C3.000
; #@! TA.AperFunction,NonPlated,NPTH,ComponentDrill
T3C3.048
; #@! TA.AperFunction,NonPlated,NPTH,ComponentDrill
T4C3.988
%
G90
G05
T1
X49.212Y-60.96
X49.212Y-80.01
X49.212Y-99.06
X49.212Y-118.11
X59.372Y-60.96
X59.372Y-80.01
X59.372Y-99.06
X59.372Y-118.11
X68.263Y-60.96
X68.263Y-80.01
X68.263Y-99.06
X68.263Y-118.11
X78.422Y-60.96
X78.422Y-80.01
X78.422Y-99.06
X78.422Y-118.11
X87.312Y-60.96
X87.312Y-80.01
X87.312Y-99.06
X87.312Y-118.11
X97.472Y-60.96
X97.472Y-80.01
X97.472Y-99.06
X97.472Y-118.11
X106.362Y-60.96
X106.362Y-80.01
X106.362Y-99.06
X106.362Y-118.11
X116.522Y-60.96
X116.522Y-80.01
X116.522Y-99.06
X116.522Y-118.11
X125.412Y-60.96
X125.412Y-80.01
X125.412Y-99.06
X125.412Y-118.11
X135.572Y-60.96
X135.572Y-80.01
X135.572Y-99.06
X135.572Y-118.11
X144.463Y-60.96
X144.463Y-80.01
X144.463Y-99.06
X153.987Y-118.11
X154.623Y-60.96
X154.623Y-80.01
X154.623Y-99.06
X163.512Y-60.96
X163.512Y-80.01
X163.512Y-99.06
X164.147Y-118.11
X173.672Y-60.96
X173.672Y-80.01
X173.672Y-99.06
X182.562Y-60.96
X182.562Y-80.01
X182.562Y-99.06
X182.562Y-118.11
X192.722Y-60.96
X192.722Y-80.01
X192.722Y-99.06
X192.722Y-118.11
X201.612Y-60.96
X201.612Y-80.01
X201.612Y-99.06
X201.612Y-118.11
X211.772Y-60.96
X211.772Y-80.01
X211.772Y-99.06
X211.772Y-118.11
X220.662Y-60.96
X220.662Y-80.01
X220.662Y-99.06
X220.662Y-118.11
X230.822Y-60.96
X230.822Y-80.01
X230.822Y-99.06
X230.822Y-118.11
X239.712Y-60.96
X239.712Y-80.01
X239.712Y-99.06
X239.712Y-118.11
X249.873Y-60.96
X249.873Y-80.01
X249.873Y-99.06
X249.873Y-118.11
X258.762Y-60.96
X258.762Y-80.01
X258.762Y-99.06
X258.762Y-118.11
X268.923Y-60.96
X268.923Y-80.01
X268.923Y-99.06
X268.923Y-118.11
T2
X50.482Y-58.42
X50.482Y-77.47
X50.482Y-96.52
X50.482Y-115.57
X56.832Y-55.88
X56.832Y-74.93
X56.832Y-93.98
X56.832Y-113.03
X69.532Y-58.42
X69.532Y-77.47
X69.532Y-96.52
X69.532Y-115.57
X75.882Y-55.88
X75.882Y-74.93
X75.882Y-93.98
X75.882Y-113.03
X88.582Y-58.42
X88.582Y-77.47
X88.582Y-96.52
X88.582Y-115.57
X94.932Y-55.88
X94.932Y-74.93
X94.932Y-93.98
X94.932Y-113.03
X107.632Y-58.42
X107.632Y-77.47
X107.632Y-96.52
X107.632Y-115.57
X113.983Y-55.88
X113.983Y-74.93
X113.983Y-93.98
X113.983Y-113.03
X126.682Y-58.42
X126.682Y-77.47
X126.682Y-96.52
X126.682Y-115.57
X133.032Y-55.88
X133.032Y-74.93
X133.032Y-93.98
X133.032Y-113.03
X145.732Y-58.42
X145.732Y-77.47
X145.732Y-96.52
X152.082Y-55.88
X152.082Y-74.93
X152.082Y-93.98
X155.257Y-115.57
X161.607Y-113.03
X164.782Y-58.42
X164.782Y-77.47
X164.782Y-96.52
X171.132Y-55.88
X171.132Y-74.93
X171.132Y-93.98
X183.832Y-58.42
X183.832Y-77.47
X183.832Y-96.52
X183.832Y-115.57
X190.183Y-55.88
X190.183Y-74.93
X190.183Y-93.98
X190.183Y-113.03
X202.882Y-58.42
X202.882Y-77.47
X202.882Y-96.52
X202.882Y-115.57
X209.232Y-55.88
X209.232Y-74.93
X209.232Y-93.98
X209.232Y-113.03
X221.932Y-58.42
X221.932Y-77.47
X221.932Y-96.52
X221.932Y-115.57
X228.282Y-55.88
X228.282Y-74.93
X228.282Y-93.98
X228.282Y-113.03
X240.982Y-58.42
X240.982Y-77.47
X240.982Y-96.52
X240.982Y-115.57
X247.332Y-55.88
X247.332Y-74.93
X247.332Y-93.98
X247.332Y-113.03
X260.032Y-58.42
X260.032Y-77.47
X260.032Y-96.52
X260.032Y-115.57
X266.382Y-55.88
X266.382Y-74.93
X266.382Y-93.98
X266.382Y-113.03
T3
X147.13Y-125.095
X171.005Y-125.095
T4
X54.292Y-60.96
X54.292Y-80.01
X54.292Y-99.06
X54.292Y-118.11
X73.343Y-60.96
X73.343Y-80.01
X73.343Y-99.06
X73.343Y-118.11
X92.392Y-60.96
X92.392Y-80.01
X92.392Y-99.06
X92.392Y-118.11
X111.442Y-60.96
X111.442Y-80.01
X111.442Y-99.06
X111.442Y-118.11
X130.493Y-60.96
X130.493Y-80.01
X130.493Y-99.06
X130.493Y-118.11
X147.13Y-109.855
X149.542Y-60.96
X149.542Y-80.01
X149.542Y-99.06
X159.067Y-118.11
X168.593Y-60.96
X168.593Y-80.01
X168.593Y-99.06
X171.005Y-109.855
X187.642Y-60.96
X187.642Y-80.01
X187.642Y-99.06
X187.642Y-118.11
X206.692Y-60.96
X206.692Y-80.01
X206.692Y-99.06
X206.692Y-118.11
X225.742Y-60.96
X225.742Y-80.01
X225.742Y-99.06
X225.742Y-118.11
X244.792Y-60.96
X244.792Y-80.01
X244.792Y-99.06
X244.792Y-118.11
X263.842Y-60.96
X263.842Y-80.01
X263.842Y-99.06
X263.842Y-118.11
M30
