M48
; DRILL file KiCad 10.0.4 date 2026-08-28T11:31:59
; FORMAT={-:-/ absolute / metric / decimal}
; #@! TF.CreationDate,2026-08-28T11:31:59-06:00
; #@! TF.GenerationSoftware,Kicad,Pcbnew,10.0.4
; #@! TF.FileFunction,Plated,1,2,PTH
FMAT,2
METRIC
; #@! TA.AperFunction,Plated,PTH,ViaDrill
T1C0.400
; #@! TA.AperFunction,Plated,PTH,ComponentDrill
T2C0.762
; #@! TA.AperFunction,Plated,PTH,ComponentDrill
T3C0.800
; #@! TA.AperFunction,Plated,PTH,ComponentDrill
T4C0.889
; #@! TA.AperFunction,Plated,PTH,ComponentDrill
T5C0.900
; #@! TA.AperFunction,Plated,PTH,ComponentDrill
T6C0.914
; #@! TA.AperFunction,Plated,PTH,ComponentDrill
T7C0.914
; #@! TA.AperFunction,Plated,PTH,ComponentDrill
T8C1.000
; #@! TA.AperFunction,Plated,PTH,ComponentDrill
T9C1.300
; #@! TA.AperFunction,Plated,PTH,ComponentDrill
T10C1.500
; #@! TA.AperFunction,Plated,PTH,ComponentDrill
T11C2.200
%
G90
G05
T1
X33.225Y-83.541
X37.557Y-66.675
X38.1Y-83.82
X43.815Y-80.01
X44.43Y-79.191
X46.667Y-75.248
X51.435Y-122.872
X51.492Y-65.975
X51.492Y-85.025
X51.492Y-104.075
X56.363Y-71.871
X57.035Y-124.272
X57.092Y-67.375
X57.092Y-86.425
X57.092Y-105.475
X59.055Y-88.582
X66.675Y-64.77
X66.675Y-66.675
X66.675Y-83.82
X66.675Y-85.725
X66.675Y-102.87
X66.675Y-104.775
X70.542Y-65.975
X70.542Y-85.025
X70.542Y-104.075
X70.542Y-123.125
X76.142Y-67.375
X76.142Y-86.425
X76.142Y-105.475
X76.142Y-124.525
X85.725Y-64.77
X85.725Y-66.675
X85.725Y-83.82
X85.725Y-85.725
X85.725Y-102.87
X85.725Y-104.775
X89.593Y-65.975
X89.593Y-85.025
X89.593Y-104.075
X89.593Y-123.125
X95.192Y-67.375
X95.192Y-86.425
X95.192Y-105.475
X95.192Y-124.525
X104.775Y-64.77
X104.775Y-66.675
X104.775Y-83.82
X104.775Y-85.725
X104.775Y-102.87
X104.775Y-104.775
X108.642Y-85.025
X108.642Y-104.075
X108.642Y-123.125
X108.7Y-65.975
X114.242Y-86.425
X114.242Y-105.475
X114.242Y-124.525
X114.3Y-67.375
X123.407Y-71.835
X123.825Y-64.77
X123.825Y-66.675
X123.825Y-83.82
X123.825Y-85.725
X123.825Y-102.87
X123.825Y-104.775
X127.692Y-65.975
X127.692Y-85.025
X127.692Y-104.075
X127.692Y-123.125
X133.292Y-67.375
X133.292Y-86.425
X133.292Y-105.475
X133.292Y-124.525
X142.457Y-71.265
X142.875Y-64.77
X142.875Y-66.675
X142.875Y-83.82
X142.875Y-85.725
X142.875Y-102.87
X142.875Y-104.775
X146.743Y-65.975
X146.743Y-85.025
X146.743Y-104.075
X152.343Y-67.375
X152.343Y-86.425
X152.343Y-105.475
X156.267Y-123.125
X161.507Y-70.825
X161.868Y-124.525
X161.925Y-64.77
X161.925Y-66.675
X161.925Y-83.82
X161.925Y-85.725
X165.792Y-85.025
X165.792Y-104.075
X165.85Y-65.975
X171.392Y-86.425
X171.392Y-105.475
X171.45Y-67.375
X180.558Y-70.385
X180.975Y-64.77
X180.975Y-66.675
X180.975Y-83.82
X180.975Y-85.725
X180.975Y-102.87
X180.975Y-104.775
X184.843Y-65.975
X184.843Y-85.025
X184.843Y-104.075
X184.843Y-123.125
X190.442Y-67.375
X190.442Y-86.425
X190.442Y-105.475
X190.442Y-124.525
X199.607Y-69.945
X200.025Y-64.77
X200.025Y-66.675
X200.025Y-83.82
X200.025Y-85.725
X200.025Y-102.87
X200.025Y-104.775
X203.892Y-85.025
X203.892Y-104.075
X203.892Y-123.125
X203.95Y-65.975
X209.492Y-86.425
X209.492Y-105.475
X209.492Y-124.525
X209.55Y-67.375
X218.657Y-69.532
X219.075Y-64.77
X219.075Y-66.675
X219.075Y-83.82
X219.075Y-85.725
X219.075Y-102.87
X219.075Y-104.775
X222.942Y-65.975
X222.942Y-104.075
X222.942Y-123.125
X223.0Y-85.025
X228.542Y-67.375
X228.542Y-105.475
X228.542Y-124.525
X228.6Y-86.425
X237.707Y-69.065
X238.125Y-64.77
X238.125Y-66.675
X238.125Y-83.82
X238.125Y-85.725
X238.125Y-102.87
X238.125Y-104.775
X241.992Y-65.975
X241.992Y-104.075
X241.992Y-123.125
X242.05Y-85.025
X247.593Y-67.375
X247.593Y-105.475
X247.593Y-124.525
X247.65Y-86.425
X257.175Y-64.77
X257.175Y-66.675
X257.175Y-83.82
X257.175Y-85.725
X257.175Y-102.87
X257.175Y-104.775
X261.042Y-65.975
X261.042Y-85.025
X261.042Y-104.075
X261.042Y-123.125
X266.642Y-67.375
X266.642Y-86.425
X266.642Y-105.475
X266.642Y-124.525
X268.605Y-68.58
X268.605Y-87.63
T2
X25.717Y-53.676
X40.958Y-53.676
T3
X63.5Y-55.245
X63.5Y-62.865
X63.5Y-74.295
X63.5Y-81.915
X63.5Y-93.345
X63.5Y-100.965
X63.5Y-112.395
X63.5Y-120.015
X82.55Y-55.245
X82.55Y-62.865
X82.55Y-74.295
X82.55Y-81.915
X82.55Y-93.345
X82.55Y-100.965
X82.55Y-112.395
X82.55Y-120.015
X101.6Y-55.245
X101.6Y-62.865
X101.6Y-74.295
X101.6Y-81.915
X101.6Y-93.345
X101.6Y-100.965
X101.6Y-112.395
X101.6Y-120.015
X120.65Y-55.245
X120.65Y-62.865
X120.65Y-74.295
X120.65Y-81.915
X120.65Y-93.345
X120.65Y-100.965
X120.65Y-112.395
X120.65Y-120.015
X139.7Y-55.245
X139.7Y-62.865
X139.7Y-74.295
X139.7Y-81.915
X139.7Y-93.345
X139.7Y-100.965
X139.7Y-112.395
X139.7Y-120.015
X158.75Y-55.245
X158.75Y-62.865
X158.75Y-74.295
X158.75Y-81.915
X158.75Y-93.345
X158.75Y-100.965
X177.8Y-55.245
X177.8Y-62.865
X177.8Y-74.295
X177.8Y-81.915
X177.8Y-93.345
X177.8Y-100.965
X177.8Y-112.395
X177.8Y-120.015
X196.85Y-55.245
X196.85Y-62.865
X196.85Y-74.295
X196.85Y-81.915
X196.85Y-93.345
X196.85Y-100.965
X196.85Y-112.395
X196.85Y-120.015
X215.9Y-55.245
X215.9Y-62.865
X215.9Y-74.295
X215.9Y-81.915
X215.9Y-93.345
X215.9Y-100.965
X215.9Y-112.395
X215.9Y-120.015
X234.95Y-55.245
X234.95Y-62.865
X234.95Y-74.295
X234.95Y-81.915
X234.95Y-93.345
X234.95Y-100.965
X234.95Y-112.395
X234.95Y-120.015
X254.0Y-55.245
X254.0Y-62.865
X254.0Y-74.295
X254.0Y-81.915
X254.0Y-93.345
X254.0Y-100.965
X254.0Y-112.395
X254.0Y-120.015
X273.05Y-55.245
X273.05Y-62.865
X273.05Y-74.295
X273.05Y-81.915
X273.05Y-93.345
X273.05Y-100.965
X273.05Y-112.395
X273.05Y-120.015
T4
X32.798Y-81.061
X35.338Y-81.061
X37.878Y-81.061
T5
X36.195Y-124.777
X38.195Y-124.777
X40.195Y-124.777
T6
X40.958Y-84.156
T7
X25.717Y-56.216
X25.717Y-58.756
X25.717Y-61.296
X25.717Y-63.836
X25.717Y-66.376
X25.717Y-68.916
X25.717Y-71.456
X25.717Y-73.996
X25.717Y-76.536
X25.717Y-79.076
X25.717Y-81.616
X25.717Y-84.156
X40.958Y-56.216
X40.958Y-58.756
X40.958Y-61.296
X40.958Y-63.836
X40.958Y-66.376
X40.958Y-68.916
X40.958Y-71.456
X40.958Y-73.996
X40.958Y-76.536
X40.958Y-79.076
X40.958Y-81.616
T8
X28.277Y-98.472
X29.527Y-88.275
X30.777Y-98.472
X32.067Y-88.275
X34.608Y-88.275
X36.512Y-91.817
X37.148Y-88.275
X39.052Y-91.817
X41.593Y-91.817
T9
X26.67Y-87.237
X26.67Y-93.737
T10
X34.095Y-124.777
X42.295Y-124.777
T11
X44.767Y-62.0
X44.767Y-108.585
X159.067Y-89.535
X254.317Y-70.485
X254.317Y-108.585
M30
